# xmcd
#
# Track frame offsets: 
# 150
# 17812
# 30542
# 48789
# 64340
# 77182
# 96976
# 110089
# 127382
# 141700
# 154820
# 167627
# 180071
#
# Disc length: 2626 seconds
# Submitted via: tkcNetwork 1.0
# Revision: 0
# Processed by: cddbd v1.5.2PL0 Copyright (c) Steve Scherf et al.
#
DISCID=b50a400d
DTITLE=The Bonneville Barons - Platter Pinata!
DYEAR=2008
DGENRE=Country
TTITLE0=Baron Boogie
TTITLE1=The ol' fishin' hole
TTITLE2=Baby if you only knew
TTITLE3=Come what may
TTITLE4=Fortune tellin' baby
TTITLE5=Drunken sailor
TTITLE6=I can't wait
TTITLE7=Heave ho!
TTITLE8=Who are you lovin' tonite?
TTITLE9=Husband number four
TTITLE10=Moonlight Indian rest
TTITLE11=Is this the end?
TTITLE12=Ain't too much
EXTD=
EXTT0=
EXTT1=
EXTT2=
EXTT3=
EXTT4=
EXTT5=
EXTT6=
EXTT7=
EXTT8=
EXTT9=
EXTT10=
EXTT11=
EXTT12=
PLAYORDER=
